<svg width="32" height="32" viewBox="0 0 32 32" fill="none" xmlns="http://www.w3.org/2000/svg">
<path fill-rule="evenodd" clip-rule="evenodd" d="M28.312 28.26C25.003 30.7 20.208 32 16.08 32C10.28 32 5.07803 29.86 1.13503 26.297C0.835029 26.017 1.10303 25.635 1.47503 25.853C5.73003 28.33 11 29.82 16.426 29.82C20.3446 29.8019 24.2209 29.0094 27.832 27.488C28.392 27.25 28.862 27.855 28.312 28.261M29.688 26.686C29.268 26.146 26.892 26.431 25.828 26.556C25.503 26.596 25.454 26.313 25.746 26.11C27.646 24.78 30.74 25.163 31.102 25.61C31.464 26.057 31.008 29.17 29.232 30.654C28.959 30.882 28.699 30.761 28.832 30.458C29.232 29.462 30.126 27.228 29.702 26.686" fill="#1AC7FF"/>
<path fill-rule="evenodd" clip-rule="evenodd" d="M18.43 13.864C18.43 15.556 18.473 16.967 17.618 18.469C16.918 19.689 15.818 20.442 14.613 20.442C12.946 20.442 11.969 19.172 11.969 17.297C11.969 13.597 15.285 12.924 18.431 12.924V13.864M22.811 24.448C22.524 24.705 22.109 24.723 21.785 24.552C20.345 23.355 20.081 22.799 19.293 21.657C16.911 24.087 15.219 24.814 12.135 24.814C8.47702 24.814 5.63702 22.56 5.63702 18.047C5.63702 14.523 7.54202 12.123 10.267 10.95C12.624 9.912 15.917 9.73 18.432 9.45V8.9C18.432 7.868 18.512 6.646 17.902 5.755C17.377 4.955 16.362 4.625 15.465 4.625C13.81 4.625 12.338 5.475 11.978 7.233C11.905 7.633 11.618 8.009 11.221 8.027L7.00002 7.555C6.64602 7.475 6.25002 7.189 6.35302 6.655C7.32802 1.54 11.945 0 16.074 0C18.187 0 20.948 0.562 22.614 2.162C24.727 4.135 24.526 6.767 24.526 9.632V16.4C24.526 18.434 25.369 19.325 26.163 20.425C26.438 20.825 26.499 21.285 26.145 21.579C25.0242 22.5267 23.9148 23.4878 22.817 24.462L22.811 24.45" fill="#FF9900"/>
</svg>
