<svg width="512" height="512" viewBox="0 0 512 512" fill="none" xmlns="http://www.w3.org/2000/svg">
<path d="M297.391 256.4C316.351 256.4 334.651 256.46 352.951 256.26C354.111 256.25 355.931 254.35 356.291 253.02C367.191 212.64 378.091 172.26 388.531 131.76C389.561 127.76 388.001 122.97 387.171 118.64C385.231 108.53 382.871 98.51 380.981 88.39C380.601 86.32 381.001 83.68 382.011 81.83C394.291 59.36 406.801 37.01 419.131 14.57C420.551 11.98 421.821 11.15 424.921 12.05C436.661 15.47 448.521 18.49 460.191 21.63C460.191 33.28 460.291 44.43 460.171 55.58C460.011 71.08 459.781 86.58 459.321 102.07C459.251 104.31 458.271 106.93 456.841 108.64C450.421 116.3 443.911 123.9 437.001 131.11C431.451 136.9 427.911 143.32 425.881 151.17C417.041 185.4 407.721 219.5 398.581 253.65C398.411 254.28 398.401 254.95 398.241 256.25H501.441V262.22C501.441 313.22 501.411 364.21 501.511 415.21C501.511 418.63 500.601 421.06 498.141 423.49C472.871 448.58 447.751 473.84 422.441 498.89C420.791 500.52 417.891 501.72 415.571 501.72C309.411 501.86 203.251 501.86 97.1013 501.72C94.6313 501.72 91.5413 500.44 89.7913 498.7C64.4513 473.62 39.2613 448.39 14.1413 423.08C12.6713 421.6 11.3213 419.17 11.3113 417.18C11.1713 364.35 11.2113 311.52 11.2313 258.69C11.2313 258.2 11.3513 257.7 11.4913 256.64H97.6213C93.7113 241.73 90.0413 227.45 86.2213 213.22C81.0613 193.98 75.6913 174.8 70.6413 155.54C69.9113 152.76 68.9313 151.51 66.0613 150.73C36.3313 142.55 17.3913 123.51 12.1413 93.06C7.71126 67.34 16.2613 45.28 36.3413 27C39.1313 37.27 41.7613 46.82 44.3213 56.38C47.2013 67.12 49.8513 77.92 52.8913 88.61C56.9613 102.95 68.1813 111.61 82.3813 111.72C96.4513 111.83 108.251 103.42 111.791 89.45C113.121 84.22 112.951 78.09 111.671 72.8C106.751 52.48 101.101 32.34 95.4213 11C99.4213 12.11 102.861 12.84 106.151 14.01C155.721 31.61 170.341 93.02 133.801 130.84C130.011 134.76 129.371 137.8 130.791 142.93C140.891 179.57 150.571 216.33 160.551 253.01C160.921 254.38 162.971 256.25 164.261 256.26C187.421 256.45 210.591 256.39 233.751 256.36C234.211 256.36 234.671 256.13 235.421 255.92C235.481 254.61 235.601 253.32 235.601 252.03C235.611 229.7 235.551 207.37 235.671 185.04C235.691 182.01 234.781 180.43 232.051 178.88C183.181 151.06 182.381 83.14 230.501 54.91C231.901 54.09 233.391 53.39 235.531 52.28C235.661 54.51 235.841 56.23 235.841 57.95C235.861 76.78 235.761 95.61 235.881 114.45C236.001 132.04 245.701 143.66 262.441 146.63C277.661 149.34 293.711 138.07 296.361 122.65C296.981 119.06 297.251 115.37 297.271 111.72C297.361 93.89 297.311 76.06 297.311 58.22C297.311 56.45 297.311 54.68 297.311 52.15C311.741 59.27 322.191 69.31 329.471 82.67C348.091 116.83 335.911 159.03 301.651 178.5C298.471 180.3 297.291 182.11 297.321 185.77C297.501 209.08 297.411 232.39 297.411 256.39L297.391 256.4ZM52.5813 297.55C52.4413 298.56 52.2813 299.19 52.2813 299.83C52.2613 333.33 52.2213 366.83 52.3513 400.32C52.3513 402.06 53.3713 404.2 54.6213 405.46C72.0813 423.1 89.6413 440.64 107.231 458.15C108.231 459.15 109.621 460.38 110.861 460.42C118.291 460.63 125.731 460.53 133.761 460.53V399.78H174.761V460.26H235.771V399.78H276.801V460.16H338.111V399.7H379.061V460.58C386.011 460.58 392.321 460.86 398.581 460.44C401.091 460.27 404.111 459.19 405.871 457.47C423.231 440.43 440.431 423.23 457.471 405.87C459.191 404.12 460.381 401.04 460.391 398.56C460.581 366.56 460.521 334.56 460.511 302.57C460.511 300.96 460.361 299.35 460.271 297.57H52.5813V297.55Z" fill="#00B6E6"/>
</svg>
